<?xml version="1.0" encoding="utf-8"?>
<!-- Generator: Adobe Illustrator 18.1.1, SVG Export Plug-In . SVG Version: 6.00 Build 0)  -->
<svg version="1.1" id="Layer_1" xmlns="http://www.w3.org/2000/svg" xmlns:xlink="http://www.w3.org/1999/xlink" x="0px" y="0px"
	 viewBox="1420.4 610.5 1335.3 503.3" enable-background="new 1420.4 610.5 1335.3 503.3" xml:space="preserve">
<g>
	<g>
		<rect x="1420.4" y="1045.7" fill="#00062F" width="803.3" height="2.2"/>
		
			<linearGradient id="SVGID_1_" gradientUnits="userSpaceOnUse" x1="299.4763" y1="1217.5016" x2="299.4763" y2="1448.2037" gradientTransform="matrix(2.1818 0 0 -2.1818 1420.3635 3770.1819)">
			<stop  offset="0" style="stop-color:#00427A"/>
			<stop  offset="0.1323" style="stop-color:#00376C"/>
			<stop  offset="0.4958" style="stop-color:#001C4B"/>
			<stop  offset="0.7981" style="stop-color:#000C36"/>
			<stop  offset="1" style="stop-color:#00062F"/>
		</linearGradient>
		<path fill="url(#SVGID_1_)" d="M2180.9,632.9c-0.7,0-1.3,0.4-1.5,0.9h-27.3c-0.4-0.7-0.9-1.5-1.5-2.2c-1.7-1.7-3.9-2.6-5.7-4.6
			c-1.7,0.2-13.3,0.9-14.4,1.5c-0.9,0.9-1.5,1.7-2.4,2.8c-0.7,0.2-1.1,1.1-1.5,2.6h-47.6c-0.4-0.4-0.9-0.9-1.5-0.9c-1.1,0-2,0.9-2,2
			v3.9h-19.6c0.2-1.1,0.7-2.2,0.9-3.5c-2.2-16.8-29-33.2-47.1-20.7c-20.5,14.2,4.1,38.8-3.9,52.1c-5.9,9.6-7,13.5-15.9,19.6
			c-7.6,5.5-17.5,32.1-19.4,40.6c-0.7,7.4-4.1,36-5.5,45.8c2.4,15.5,7,21.2,10.5,34.7c-0.2,4.6-0.4,9.2-0.7,13.5
			c-0.7,13.3,5,68.3,5,68.3l14.4,16.4c0,0,0.2,75.9,0.2,82c1.7,14.8,3.7,29.9,5.5,44.7c2,12.4,0,23.6,2.2,35.3
			c1.7,5.9,3.7,11.8,5.5,17.5c-0.2,5-0.4,10-0.7,15.1c3.1,6.3,41.2,15.9,51.5,9.6c0.9-0.9,0.4-0.2,0.4-1.7c7.4,0.7,14.6,1.3,22,2
			c0.2-1.3,0.4-2.4,0.4-3.7c0.2,0,0.2,0,0.4,0c5.2,1.7,10.5,3.7,15.7,5.5c11.1,2.8,26.4,1.7,36.9,0c0.2-0.4,0.4-0.9,0.9-1.5
			c-9.8-12.2-27.7-8.5-36.2-25.1c-13.3-25.7-26.8-158.8-27.9-160.4c-0.9-3.9-0.2-27.5-1.3-29.2c0.9-2.4,2.8-22.9,3.1-30.8
			c-2-8.9-4.1-12.2-6.3-21.2c1.1-0.9-3.9-50.4-5.5-51.9c0.4-10.3,2.4-38,2.6-43l26.8,8.5l9.2,4.4c8.9-5,13.5-12,13.5-12l38-74.2
			l-12.2-5.2c0.2-1.7,0.7-3.5,0.9-5.2c0.7-2.2,5-7.9,8.5-14.2h30.8c0.4,0.4,0.9,0.9,1.5,0.9c1.1,0,2-0.9,2-2v-15.1
			C2182.9,633.8,2182,632.9,2180.9,632.9z M2055.7,1103.1c-5.5-1.5-9.8-8.5-12.7-12.7c0.7-4.4,1.1-7.9,0.9-12.4c0.4,0,0.9,0,1.5,0
			c4.1,5.9,3.9,12.4,6.1,20.1c1.5,0,3.1,0.2,4.4,0.2C2055.9,1099.9,2055.9,1101.4,2055.7,1103.1z M2127.3,662.8
			c-0.2,0.9-0.4,2-0.4,2.8l-3.1-1.3l-31.2,58.7c0,0-19.4-11.8-38.6-21.6c-5.5-7-12.7-12.7-18.8-19c0.2-0.4,0.2-0.7,0.4-1.1
			c4.4-10.5,20.7,3.5,19.4-14c1.3-0.7,1.5-1.3,2.4-2.4c-0.7-1.1-1.1-2-1.7-3.1c1.3-3.3,1.1-3.3,0.7-7c2.2-1.1,3.7-1.5,5-3.9
			c-0.4-1.5-1.5-3.1-2.8-4.4h16.8v3.9c0,1.1,0.9,2,2,2c0.7,0,1.3-0.4,1.5-0.9h47.8C2127.3,655.4,2127.9,659.1,2127.3,662.8z"/>
		
			<linearGradient id="SVGID_2_" gradientUnits="userSpaceOnUse" x1="18.3" y1="1274.6" x2="18.3" y2="1427.2999" gradientTransform="matrix(2.1818 0 0 -2.1818 1420.3635 3770.1819)">
			<stop  offset="0" style="stop-color:#808285"/>
			<stop  offset="1" style="stop-color:#58595B"/>
		</linearGradient>
		<path fill="url(#SVGID_2_)" d="M1459.6,731.6c-23.8,0-39.3-16.8-39.3-37.7c0-21.4,15.9-37.7,40.1-37.7c24.2,0,39.3,16.4,39.7,37.7
			c0,20.9-15.5,37.7-40.1,37.7H1459.6z M1424.5,989.2v-228h70.9v228H1424.5z"/>
		
			<linearGradient id="SVGID_3_" gradientUnits="userSpaceOnUse" x1="99.2" y1="1274.5" x2="99.2" y2="1381.4" gradientTransform="matrix(2.1818 0 0 -2.1818 1420.3635 3770.1819)">
			<stop  offset="0" style="stop-color:#808285"/>
			<stop  offset="1" style="stop-color:#58595B"/>
		</linearGradient>
		<path fill="url(#SVGID_3_)" d="M1529.7,834.1c0-28.4-0.9-52.1-2-72.7h61.5l3.3,31.6h1.3c9.4-14.8,32.1-36.9,70.5-36.9
			c46.7,0,81.6,31.2,81.6,98.4v134.8H1675V863.1c0-29.5-10.3-49.5-36-49.5c-19.6,0-31.2,13.5-36.4,26.6c-2,4.6-2.4,11.1-2.4,17.7
			v131.6h-70.5V834.1z"/>
		
			<linearGradient id="SVGID_4_" gradientUnits="userSpaceOnUse" x1="200.95" y1="1272.2" x2="200.95" y2="1381.4" gradientTransform="matrix(2.1818 0 0 -2.1818 1420.3635 3770.1819)">
			<stop  offset="0" style="stop-color:#808285"/>
			<stop  offset="1" style="stop-color:#58595B"/>
		</linearGradient>
		<path fill="url(#SVGID_4_)" d="M1785.6,927.7c13.1,7.9,40.1,16.8,61.1,16.8c21.4,0,30.3-7,30.3-18.5c0-12.2-7-17.7-33.2-26.6
			c-47.6-15.5-65.7-41.5-65.2-68.1c0-43,36.4-75.1,92.7-75.1c26.6,0,50,6.5,63.9,13.5l-12.2,48.4c-10.3-5.2-30.3-12.7-49.5-12.7
			c-17.2,0-27.1,7-27.1,18.1c0,11.1,8.9,16.8,36.9,26.6c43.4,14.4,61.1,36.9,61.5,70c0,43-33.2,74.2-98.4,74.2
			c-29.9,0-56.5-7-73.7-16.4L1785.6,927.7z"/>
		
			<linearGradient id="SVGID_5_" gradientUnits="userSpaceOnUse" x1="365.85" y1="1229.9" x2="365.85" y2="1381.4" gradientTransform="matrix(2.1818 0 0 -2.1818 1420.3635 3770.1819)">
			<stop  offset="0" style="stop-color:#808285"/>
			<stop  offset="1" style="stop-color:#58595B"/>
		</linearGradient>
		<path fill="url(#SVGID_5_)" d="M2332.1,956.3c0,43.9-8.9,79.6-34.9,102.5c-24.7,21.4-58.7,27.9-92.3,27.9
			c-30.3,0-61.5-6.1-82-17.2l14-54.1c14.4,8.3,39.1,17.2,66.1,17.2c33.6,0,59.1-17.7,59.1-60.2V958h-0.9
			c-13.5,18.5-35.3,29.5-61.5,29.5c-56.5,0-96.4-45.6-96.4-111.1c0-73.7,47.1-120.2,103.4-120.2c31.2,0,50.8,13.5,62.4,32.1h0.9
			l2.4-27.1h61.5c-0.9,14.8-2,34-2,68.1v127H2332.1z M2261.2,854.2c0-4.1-0.4-8.9-1.3-13.1c-5.2-18.5-18.5-31.2-38.2-31.2
			c-26.2,0-46.7,23.3-46.7,64.8c0,34,16.8,60.7,46.3,60.7c18.5,0,33.2-12.2,37.7-28.4c2-5.7,2.4-13.1,2.4-19.2v-33.6H2261.2z"/>
		
			<linearGradient id="SVGID_6_" gradientUnits="userSpaceOnUse" x1="483.0999" y1="1274.5" x2="483.0999" y2="1426.2999" gradientTransform="matrix(2.1818 0 0 -2.1818 1420.3635 3770.1819)">
			<stop  offset="0" style="stop-color:#808285"/>
			<stop  offset="1" style="stop-color:#58595B"/>
		</linearGradient>
		<path fill="url(#SVGID_6_)" d="M2366.4,658.3h70.9v130.5h0.9c7.4-10.3,16.8-18.1,27.9-23.8c10.7-5.7,23.8-8.9,36.9-8.9
			c45.2,0,79.6,31.2,79.6,100.1V989h-70.9V864c0-29.9-10.3-50.4-36.9-50.4c-18.5,0-30.3,12.2-35.3,25.1c-2,4.1-2.4,10.3-2.4,15.5
			v135.3h-70.9V658.3H2366.4z"/>
		
			<linearGradient id="SVGID_7_" gradientUnits="userSpaceOnUse" x1="577.5" y1="1272.3" x2="577.5" y2="1407.5" gradientTransform="matrix(2.1818 0 0 -2.1818 1420.3635 3770.1819)">
			<stop  offset="0" style="stop-color:#808285"/>
			<stop  offset="1" style="stop-color:#58595B"/>
		</linearGradient>
		<path fill="url(#SVGID_7_)" d="M2704.8,699.3v62h50.8v52.1h-50.8v82.9c0,27.5,7,40.1,27.9,40.1c9.8,0,14.4-0.4,20.9-2l0.4,53.7
			c-8.9,3.3-26.2,6.1-45.6,6.1c-22.9,0-41.9-7.9-53.7-19.6c-13.1-13.5-19.6-35.3-19.6-67.6v-93.8h-30.1V761h30.3v-43L2704.8,699.3z"
			/>
	</g>
</g>
</svg>
